<?xml version="1.0" encoding="UTF-8" standalone="no"?>
<svg xmlns:rdf="http://www.w3.org/1999/02/22-rdf-syntax-ns#" xmlns="http://www.w3.org/2000/svg" height="310" width="280" version="1.1" xmlns:cc="http://creativecommons.org/ns#" xmlns:xlink="http://www.w3.org/1999/xlink" viewBox="0 0 280 310" xmlns:dc="http://purl.org/dc/elements/1.1/">
 <defs>
  <filter id="filter4553" style="color-interpolation-filters:sRGB">
   <feFlood flood-opacity=".93726" flood-color="rgb(17,17,17)" result="flood"/>
   <feComposite operator="in" result="composite1" in2="SourceGraphic" in="flood"/>
   <feGaussianBlur stdDeviation="3" result="blur" in="composite1"/>
   <feOffset result="offset" dx="2" dy="2"/>
   <feComposite operator="over" result="composite2" in2="offset" in="SourceGraphic"/>
  </filter>
 </defs>
 <title>ubuntu-budgie Logo</title>
 <metadata>
  <rdf:RDF>
   <cc:Work rdf:about="">
    <dc:format>image/svg+xml</dc:format>
    <dc:type rdf:resource="http://purl.org/dc/dcmitype/StillImage"/>
    <dc:title>ubuntu-budgie Logo</dc:title>
    <dc:creator>
     <cc:Agent>
      <dc:title>HEXcube and Joshua &quot;Foggalong&quot; Fogg</dc:title>
     </cc:Agent>
    </dc:creator>
    <cc:license rdf:resource="http://creativecommons.org/licenses/by-sa/4.0/"/>
    <dc:source>Budgie Logo by Yuri Henrique</dc:source>
    <dc:description>Official logo for ubuntu-budgie</dc:description>
   </cc:Work>
  </rdf:RDF>
 </metadata>
 <circle filter="url(#filter4553)" cy="233.2" cx="140" r="64" fill="#404552"/>
 <path id="budgie" fill="#fff" d="m162 244.2c-8.778 0-16.158 6.236-18.5 14.5-0.49448 1.7444-0.8347 2.342-1.5 3.5-0.85785 1.4931-2.5993 3.6494-5 5-1.9532 1.0988-3.6363 2.0337-6.1515 1.6548-0.6547-0.0986-1.8148-0.28098-2.9755-0.9488-1.85-1.065-2.46-2-3.875-4.705 0.20201 2.8869-0.17024 3.9402 1.25 9 2.827 10.072 13.69 18 26.5 18 9.4955 0 18.296-3.9576 23.248-9.999 1.8111-2.2096 3.1749-3.9529 4.5-7 1.2056-2.7724 1.5011-6.3265 1.502-9.501 0.003-10.778-8.5065-19.5-19-19.5z"/>
 <use xlink:href="#budgie" transform="matrix(-.5 .86603 -.86603 -.5 411.95 228.56)" height="100%" width="100%" y="0" x="0"/>
 <use xlink:href="#budgie" transform="matrix(-.5 -.86603 .86603 -.5 8.0423 471.04)" height="100%" width="100%" y="0" x="0"/>
</svg>
